<svg
  version="1.0"
  xmlns="http://www.w3.org/2000/svg"
  width="1001.000000pt"
  height="419.000000pt"
  viewBox="0 0 1001.000000 419.000000"
  preserveAspectRatio="xMidYMid meet"
>
<g
    transform="translate(0.000000,419.000000) scale(0.100000,-0.100000)"
    fill="#000000"
    stroke="none"
  >
<path
      fill="#0e91d8"
      d="M5593 3936 c-148 -69 -173 -280 -46 -385 20 -17 66 -42 102 -57 144
-58 211 -95 226 -124 17 -34 20 -93 5 -121 -16 -30 -70 -52 -126 -52 -86 0
-150 52 -163 130 l-6 38 -68 3 -67 3 0 -141 0 -140 65 0 65 0 0 32 0 32 28
-27 c91 -87 281 -74 369 26 87 99 74 277 -25 355 -44 35 -110 69 -211 108 -90
35 -131 70 -131 114 0 17 5 40 10 51 25 45 124 67 187 40 39 -16 73 -67 73
-109 0 -35 7 -38 80 -38 l55 1 3 138 3 137 -66 0 -65 0 0 -32 0 -31 -22 20
c-66 60 -182 72 -275 29z"
    />
<path
      fill="#0e91d8"
      d="M2270 3520 l0 -430 70 0 70 0 2 273 3 272 23 -85 c13 -47 30 -109 38
-138 l16 -53 56 3 56 3 37 130 37 130 1 -267 1 -268 75 0 75 0 0 430 0 430
-88 0 -89 0 -17 -62 c-9 -35 -33 -119 -53 -187 l-36 -123 -44 148 c-24 82 -48
166 -53 187 l-11 37 -84 0 -85 0 0 -430z"
    />
<path
      fill="#0e91d8"
      d="M3970 3825 l0 -125 -65 0 -65 0 0 -60 0 -60 64 0 63 0 5 -165 c4
-158 6 -166 34 -222 41 -81 100 -116 200 -121 40 -2 88 1 107 7 52 17 113 75
132 125 25 65 19 77 -45 92 -61 14 -70 12 -70 -16 0 -11 -12 -34 -28 -51 -23
-26 -35 -31 -75 -31 -40 -1 -53 4 -75 26 -27 26 -27 28 -30 191 l-3 165 130 0
131 0 0 60 0 60 -130 0 -130 0 0 125 0 125 -75 0 -75 0 0 -125z"
    />
<path
      fill="#0e91d8"
      d="M7140 3890 l0 -60 65 0 65 0 0 -310 0 -310 -65 0 -65 0 0 -60 0 -60
210 0 210 0 0 60 0 60 -70 0 -70 0 0 370 0 370 -140 0 -140 0 0 -60z"
    />
<path
      fill="#0e91d8"
      d="M3250 3711 c-96 -31 -177 -107 -207 -194 -11 -33 -18 -81 -18 -129 1
-67 5 -84 35 -144 40 -78 102 -132 182 -158 63 -20 188 -21 255 -1 53 16 133
68 133 86 0 6 -14 30 -32 53 -17 22 -33 42 -34 44 -1 2 -21 -11 -45 -28 -79
-55 -210 -59 -281 -9 -28 20 -49 52 -62 97 l-7 22 257 0 257 0 -5 64 c-10 118
-77 224 -172 273 -42 22 -67 27 -141 30 -49 1 -101 -1 -115 -6z m190 -140 c31
-14 80 -71 80 -92 0 -5 -76 -9 -170 -9 -188 0 -192 2 -144 59 57 68 145 84
234 42z"
    />
<path
      fill="#0e91d8"
      d="M4810 3706 c-56 -16 -140 -53 -140 -61 0 -5 46 -91 56 -104 2 -2 25
6 52 17 65 28 157 42 212 32 50 -9 90 -47 90 -86 0 -24 -1 -24 -99 -24 -239 0
-383 -114 -342 -268 25 -90 101 -141 211 -142 81 0 133 14 188 51 l42 28 0
-29 0 -30 73 0 73 0 -2 233 c-2 247 -5 271 -52 320 -52 55 -97 71 -212 74 -64
1 -122 -3 -150 -11z m251 -346 c26 0 25 -45 -1 -88 -38 -62 -182 -98 -247 -63
-25 13 -38 49 -29 84 11 46 117 81 215 71 24 -2 52 -4 62 -4z"
    />
<path
      fill="#0e91d8"
      d="M6426 3705 c-107 -41 -175 -125 -197 -247 -21 -114 11 -226 87 -300
66 -66 114 -83 234 -83 94 0 110 3 155 27 60 31 104 77 136 138 21 39 24 59
24 155 0 122 -15 165 -79 233 -57 61 -118 85 -226 89 -66 2 -107 -2 -134 -12z
m204 -130 c128 -66 133 -285 8 -355 -71 -40 -171 -28 -220 27 -49 54 -63 174
-29 249 40 88 151 124 241 79z"
    />
<path
      fill="#0e91d8"
      d="M210 2345 l0 -115 4800 0 4800 0 0 115 0 115 -4800 0 -4800 0 0 -115z"
    />
<path
      fill="#0e91d8"
      d="M751 1904 c-12 -15 -21 -37 -21 -49 0 -12 9 -34 21 -49 16 -20 29
-26 59 -26 30 0 43 6 59 26 12 15 21 37 21 49 0 12 -9 34 -21 49 -16 20 -29
26 -59 26 -30 0 -43 -6 -59 -26z"
    />
<path
      fill="#0e91d8"
      d="M960 1855 l0 -75 1350 0 1350 0 0 75 0 75 -1350 0 -1350 0 0 -75z"
    />
<path
      fill="#0e91d8"
      d="M6360 1855 l0 -75 1350 0 1350 0 0 75 0 75 -1350 0 -1350 0 0 -75z"
    />
<path
      fill="#0e91d8"
      d="M9151 1904 c-12 -15 -21 -37 -21 -49 0 -12 9 -34 21 -49 16 -20 29
-26 59 -26 30 0 43 6 59 26 12 15 21 37 21 49 0 12 -9 34 -21 49 -16 20 -29
26 -59 26 -30 0 -43 -6 -59 -26z"
    />
<path
      fill="#0e91d8"
      d="M5547 1594 c-143 -91 -260 -164 -262 -162 -2 2 14 41 35 88 22 46 37
86 35 88 -12 13 -710 -434 -880 -562 -165 -125 -231 -217 -256 -357 -56 -315
245 -595 554 -514 177 46 267 141 539 570 146 229 220 355 209 355 -7 0 -59
-19 -164 -59 -27 -10 -26 -7 26 66 57 83 419 619 431 641 4 6 4 12 -1 11 -4 0
-124 -75 -266 -165z m-202 -400 c-114 -168 -204 -308 -201 -311 2 -3 46 11 98
30 51 19 94 34 96 32 4 -4 -112 -192 -191 -310 -68 -102 -159 -222 -209 -276
-176 -194 -496 -141 -612 101 -28 58 -31 75 -31 155 0 76 4 99 27 147 49 105
151 194 453 395 196 131 396 255 401 250 2 -2 -14 -43 -36 -92 -23 -48 -39
-89 -37 -92 3 -2 103 59 223 136 121 77 220 141 222 141 2 0 -90 -138 -203
-306z"
    />
<path
      fill="#0e91d8"
      d="M4580 841 c-115 -38 -182 -128 -182 -246 0 -71 21 -127 65 -173 54
-57 102 -77 187 -77 88 0 137 22 190 81 45 52 62 99 62 169 0 139 -98 243
-237 251 -33 2 -71 0 -85 -5z m147 -92 c129 -63 129 -251 -1 -310 -52 -24
-100 -24 -152 0 -129 59 -129 253 0 312 54 24 100 24 153 -2z"
    />
</g>
</svg>
